<svg width="40" height="40" viewBox="0 0 40 40" fill="none" xmlns="http://www.w3.org/2000/svg">
<path d="M0 6C0 2.68629 2.68629 0 6 0H34C37.3137 0 40 2.68629 40 6V34C40 37.3137 37.3137 40 34 40H6C2.68629 40 0 37.3137 0 34V6Z" fill="#F0F0F0"/>
<path d="M26.6666 27.5V25.8333C26.6666 24.9493 26.3155 24.1014 25.6903 23.4763C25.0652 22.8512 24.2174 22.5 23.3333 22.5H16.6666C15.7826 22.5 14.9347 22.8512 14.3096 23.4763C13.6845 24.1014 13.3333 24.9493 13.3333 25.8333V27.5M23.3333 15.8333C23.3333 17.6743 21.8409 19.1667 20 19.1667C18.159 19.1667 16.6666 17.6743 16.6666 15.8333C16.6666 13.9924 18.159 12.5 20 12.5C21.8409 12.5 23.3333 13.9924 23.3333 15.8333Z" stroke="#242424" stroke-width="1.5" stroke-linecap="round" stroke-linejoin="round"/>
</svg>
